<mxfile host="Electron" modified="2023-09-16T11:52:54.975Z" agent="Mozilla/5.0 (X11; Linux x86_64) AppleWebKit/537.36 (KHTML, like Gecko) draw.io/21.7.5 Chrome/114.0.5735.289 Electron/25.8.1 Safari/537.36" etag="sX1GaN-nOwQYcPrmTOul" version="21.7.5" type="device">
  <diagram id="C5RBs43oDa-KdzZeNtuy" name="Page-1">
    <mxGraphModel dx="1834" dy="841" grid="0" gridSize="10" guides="1" tooltips="1" connect="1" arrows="1" fold="1" page="0" pageScale="1" pageWidth="1169" pageHeight="827" background="none" math="0" shadow="0">
      <root>
        <mxCell id="WIyWlLk6GJQsqaUBKTNV-0" />
        <mxCell id="WIyWlLk6GJQsqaUBKTNV-1" parent="WIyWlLk6GJQsqaUBKTNV-0" />
        <mxCell id="tXIKSP-ftMXlppaKsba--4" style="edgeStyle=orthogonalEdgeStyle;rounded=0;orthogonalLoop=1;jettySize=auto;html=1;exitX=1;exitY=0.5;exitDx=0;exitDy=0;entryX=0;entryY=0.5;entryDx=0;entryDy=0;" parent="WIyWlLk6GJQsqaUBKTNV-1" source="tXIKSP-ftMXlppaKsba--0" target="tXIKSP-ftMXlppaKsba--1" edge="1">
          <mxGeometry relative="1" as="geometry" />
        </mxCell>
        <mxCell id="tXIKSP-ftMXlppaKsba--0" value="Start" style="ellipse;whiteSpace=wrap;html=1;" parent="WIyWlLk6GJQsqaUBKTNV-1" vertex="1">
          <mxGeometry x="-22" y="118" width="120" height="80" as="geometry" />
        </mxCell>
        <mxCell id="tXIKSP-ftMXlppaKsba--3" value="" style="edgeStyle=orthogonalEdgeStyle;rounded=0;orthogonalLoop=1;jettySize=auto;html=1;" parent="WIyWlLk6GJQsqaUBKTNV-1" source="tXIKSP-ftMXlppaKsba--1" target="tXIKSP-ftMXlppaKsba--2" edge="1">
          <mxGeometry relative="1" as="geometry" />
        </mxCell>
        <mxCell id="tXIKSP-ftMXlppaKsba--1" value="taking inputs:&lt;br&gt;a&lt;br&gt;b&lt;br&gt;dx&lt;br&gt;f(x)" style="shape=parallelogram;perimeter=parallelogramPerimeter;whiteSpace=wrap;html=1;fixedSize=1;" parent="WIyWlLk6GJQsqaUBKTNV-1" vertex="1">
          <mxGeometry x="261" y="117" width="187" height="81" as="geometry" />
        </mxCell>
        <mxCell id="Spef3wu8tdM__yjmfsqE-1" value="" style="edgeStyle=orthogonalEdgeStyle;rounded=0;orthogonalLoop=1;jettySize=auto;html=1;" edge="1" parent="WIyWlLk6GJQsqaUBKTNV-1" source="tXIKSP-ftMXlppaKsba--2" target="Spef3wu8tdM__yjmfsqE-0">
          <mxGeometry relative="1" as="geometry" />
        </mxCell>
        <mxCell id="tXIKSP-ftMXlppaKsba--2" value="&lt;p&gt;middle = (a+b)/2&lt;br&gt;counter = 0&lt;/p&gt;" style="whiteSpace=wrap;html=1;" parent="WIyWlLk6GJQsqaUBKTNV-1" vertex="1">
          <mxGeometry x="630.5" y="127.5" width="120" height="60" as="geometry" />
        </mxCell>
        <mxCell id="Spef3wu8tdM__yjmfsqE-5" value="True" style="edgeStyle=orthogonalEdgeStyle;rounded=0;orthogonalLoop=1;jettySize=auto;html=1;exitX=1;exitY=0.5;exitDx=0;exitDy=0;entryX=0;entryY=0.5;entryDx=0;entryDy=0;" edge="1" parent="WIyWlLk6GJQsqaUBKTNV-1" source="Spef3wu8tdM__yjmfsqE-0" target="Spef3wu8tdM__yjmfsqE-4">
          <mxGeometry relative="1" as="geometry" />
        </mxCell>
        <mxCell id="Spef3wu8tdM__yjmfsqE-7" value="" style="edgeStyle=orthogonalEdgeStyle;rounded=0;orthogonalLoop=1;jettySize=auto;html=1;" edge="1" parent="WIyWlLk6GJQsqaUBKTNV-1" source="Spef3wu8tdM__yjmfsqE-0" target="Spef3wu8tdM__yjmfsqE-6">
          <mxGeometry relative="1" as="geometry" />
        </mxCell>
        <mxCell id="Spef3wu8tdM__yjmfsqE-0" value="|f(middle)|&amp;lt;= presision" style="rhombus;whiteSpace=wrap;html=1;fontFamily=Courier New;" vertex="1" parent="WIyWlLk6GJQsqaUBKTNV-1">
          <mxGeometry x="834" y="111.75" width="214.5" height="92.5" as="geometry" />
        </mxCell>
        <mxCell id="Spef3wu8tdM__yjmfsqE-23" value="" style="edgeStyle=orthogonalEdgeStyle;rounded=0;orthogonalLoop=1;jettySize=auto;html=1;" edge="1" parent="WIyWlLk6GJQsqaUBKTNV-1" source="Spef3wu8tdM__yjmfsqE-4" target="Spef3wu8tdM__yjmfsqE-22">
          <mxGeometry relative="1" as="geometry" />
        </mxCell>
        <mxCell id="Spef3wu8tdM__yjmfsqE-4" value="&lt;span style=&quot;color: rgb(240, 240, 240); font-family: &amp;quot;Courier New&amp;quot;; font-size: 12px; font-style: normal; font-variant-ligatures: normal; font-variant-caps: normal; font-weight: 400; letter-spacing: normal; orphans: 2; text-align: center; text-indent: 0px; text-transform: none; widows: 2; word-spacing: 0px; -webkit-text-stroke-width: 0px; background-color: rgb(27, 29, 30); text-decoration-thickness: initial; text-decoration-style: initial; text-decoration-color: initial; float: none; display: inline !important;&quot;&gt;print(middle)&lt;/span&gt;" style="shape=parallelogram;perimeter=parallelogramPerimeter;whiteSpace=wrap;html=1;fixedSize=1;" vertex="1" parent="WIyWlLk6GJQsqaUBKTNV-1">
          <mxGeometry x="1125" y="128" width="120" height="60" as="geometry" />
        </mxCell>
        <mxCell id="Spef3wu8tdM__yjmfsqE-13" value="True" style="edgeStyle=orthogonalEdgeStyle;rounded=0;orthogonalLoop=1;jettySize=auto;html=1;" edge="1" parent="WIyWlLk6GJQsqaUBKTNV-1" source="Spef3wu8tdM__yjmfsqE-6" target="Spef3wu8tdM__yjmfsqE-12">
          <mxGeometry relative="1" as="geometry" />
        </mxCell>
        <mxCell id="Spef3wu8tdM__yjmfsqE-17" value="False" style="edgeStyle=orthogonalEdgeStyle;rounded=0;orthogonalLoop=1;jettySize=auto;html=1;entryX=1;entryY=0.5;entryDx=0;entryDy=0;" edge="1" parent="WIyWlLk6GJQsqaUBKTNV-1" source="Spef3wu8tdM__yjmfsqE-6" target="Spef3wu8tdM__yjmfsqE-16">
          <mxGeometry relative="1" as="geometry">
            <Array as="points">
              <mxPoint x="941" y="444" />
            </Array>
          </mxGeometry>
        </mxCell>
        <mxCell id="Spef3wu8tdM__yjmfsqE-6" value="f(a)*f(middle) &amp;gt; 0" style="rhombus;whiteSpace=wrap;html=1;fontFamily=Courier New;" vertex="1" parent="WIyWlLk6GJQsqaUBKTNV-1">
          <mxGeometry x="840.38" y="294" width="201.75" height="86.5" as="geometry" />
        </mxCell>
        <mxCell id="Spef3wu8tdM__yjmfsqE-18" style="edgeStyle=orthogonalEdgeStyle;rounded=0;orthogonalLoop=1;jettySize=auto;html=1;exitX=0;exitY=0.5;exitDx=0;exitDy=0;" edge="1" parent="WIyWlLk6GJQsqaUBKTNV-1" source="Spef3wu8tdM__yjmfsqE-12">
          <mxGeometry relative="1" as="geometry">
            <mxPoint x="528" y="156" as="targetPoint" />
          </mxGeometry>
        </mxCell>
        <mxCell id="Spef3wu8tdM__yjmfsqE-12" value="&lt;span style=&quot;color: rgb(240, 240, 240); font-family: &amp;quot;Courier New&amp;quot;; font-size: 12px; font-style: normal; font-variant-ligatures: normal; font-variant-caps: normal; font-weight: 400; letter-spacing: normal; orphans: 2; text-align: center; text-indent: 0px; text-transform: none; widows: 2; word-spacing: 0px; -webkit-text-stroke-width: 0px; background-color: rgb(27, 29, 30); text-decoration-thickness: initial; text-decoration-style: initial; text-decoration-color: initial; float: none; display: inline !important;&quot;&gt;a = middle&lt;/span&gt;" style="whiteSpace=wrap;html=1;fontFamily=Courier New;" vertex="1" parent="WIyWlLk6GJQsqaUBKTNV-1">
          <mxGeometry x="599.505" y="307.25" width="120" height="60" as="geometry" />
        </mxCell>
        <mxCell id="Spef3wu8tdM__yjmfsqE-19" style="edgeStyle=orthogonalEdgeStyle;rounded=0;orthogonalLoop=1;jettySize=auto;html=1;exitX=0;exitY=0.5;exitDx=0;exitDy=0;" edge="1" parent="WIyWlLk6GJQsqaUBKTNV-1" source="Spef3wu8tdM__yjmfsqE-16">
          <mxGeometry relative="1" as="geometry">
            <mxPoint x="528" y="158" as="targetPoint" />
          </mxGeometry>
        </mxCell>
        <mxCell id="Spef3wu8tdM__yjmfsqE-16" value="b = middle" style="whiteSpace=wrap;html=1;fontFamily=Courier New;" vertex="1" parent="WIyWlLk6GJQsqaUBKTNV-1">
          <mxGeometry x="599.505" y="414" width="120" height="60" as="geometry" />
        </mxCell>
        <mxCell id="Spef3wu8tdM__yjmfsqE-22" value="ende" style="ellipse;whiteSpace=wrap;html=1;" vertex="1" parent="WIyWlLk6GJQsqaUBKTNV-1">
          <mxGeometry x="1109" y="267" width="152" height="80" as="geometry" />
        </mxCell>
      </root>
    </mxGraphModel>
  </diagram>
</mxfile>
